<?xml version="1.0" standalone="no"?><!DOCTYPE svg PUBLIC "-//W3C//DTD SVG 1.1//EN" "http://www.w3.org/Graphics/SVG/1.1/DTD/svg11.dtd"><svg t="1541842353148" class="icon" style="" viewBox="0 0 1024 1024" version="1.1" xmlns="http://www.w3.org/2000/svg" p-id="20714" xmlns:xlink="http://www.w3.org/1999/xlink" width="200" height="200"><defs><style type="text/css"></style></defs><path d="M975.44827625 207.59540239a42.20689687 42.20689687 0 0 0-42.10758656-41.4455175 42.20689687 42.20689687 0 0 0-42.14068969 41.41241438V997.21195395H975.44827625V207.59540239zM90.69241344 448.15816114A42.17379281 42.17379281 0 0 0 48.55172375 489.53747146v507.6744825h84.24827625V489.63678177a42.17379281 42.17379281 0 0 0-42.10758656-41.4455175zM371.57517219 53.33333333a42.17379281 42.17379281 0 0 0-42.10758563 41.37931031v902.53241344h84.24827532V94.77885083A42.17379281 42.17379281 0 0 0 371.54206906 53.33333333z m280.88275875 253.80413813a42.17379281 42.17379281 0 0 0-42.10758656 41.41241343v648.69517219h84.24827625V348.58298896a42.20689687 42.20689687 0 0 0-42.14068969-41.4455175z" p-id="20715"></path></svg>